<svg width="48" height="48" viewBox="0 0 48 48" fill="none" xmlns="http://www.w3.org/2000/svg">
<g clip-path="url(#clip0_122_55)">
<rect width="48" height="48" fill="white"/>
<path d="M22.0979 5.8541C22.6966 4.01148 25.3034 4.01148 25.9021 5.8541L28.9393 15.2016C29.2071 16.0257 29.975 16.5836 30.8414 16.5836H40.67C42.6074 16.5836 43.413 19.0628 41.8456 20.2016L33.8941 25.9787C33.1931 26.488 32.8998 27.3907 33.1675 28.2148L36.2047 37.5623C36.8034 39.4049 34.6945 40.9372 33.127 39.7984L25.1756 34.0213C24.4746 33.512 23.5254 33.512 22.8244 34.0213L14.873 39.7984C13.3055 40.9372 11.1966 39.4049 11.7953 37.5623L14.8325 28.2148C15.1002 27.3907 14.8069 26.488 14.1059 25.9787L6.15444 20.2016C4.58701 19.0628 5.39257 16.5836 7.33001 16.5836H17.1586C18.025 16.5836 18.7929 16.0257 19.0607 15.2016L22.0979 5.8541Z" fill="#FFE817"/>
</g>
<defs>
<clipPath id="clip0_122_55">
<rect width="48" height="48" fill="white"/>
</clipPath>
</defs>
</svg>
